<svg width="160" height="160" viewBox="0 0 170 170" fill="none" xmlns="http://www.w3.org/2000/svg">
  <g clip-path="url(#clip0_5631_168)">
    <path d="M25.6752 39.919L24.5427 37.7586L27.6718 34.0155L29.9959 34.7432L31.6333 32.783L20.554 29.6493L19.0122 31.4913L24.0743 41.8246L25.6707 39.9144L25.6752 39.919ZM21.6092 32.1189L25.7662 33.4197L23.6286 35.9757L21.6092 32.1189Z" fill="white"/>
    <path d="M37.9554 27.1524L36.6182 25.6924L32.7341 29.2536L26.9717 22.9727L25.1797 24.6145L32.2839 32.36L37.9554 27.1524Z" fill="white"/>
    <path d="M42.2903 23.9959L40.3892 16.7371L46.2199 21.4217L48.4075 19.989L45.524 9.31909L43.5774 10.5926L45.6104 18.1607L39.525 13.2487L37.6421 14.4812L39.616 22.0175L33.5852 17.1373L31.4749 18.52L40.1208 25.4195L42.2903 23.9959Z" fill="white"/>
    <path d="M52.9611 15.2772L57.4547 13.3806L59.1875 15.0953L61.5389 14.1038L53.1294 6.24463L50.9145 7.177L50.678 18.6792L52.9748 17.7105L52.9566 15.2727L52.9611 15.2772ZM56.0357 11.9753L52.9657 13.2715L52.9384 8.91893L56.0357 11.9798V11.9753Z" fill="white"/>
    <path d="M64.2271 13.5034L66.5739 12.8667L65.5961 9.27363L67.7565 1.65552L65.4505 2.27861L63.9679 7.52261L60.0337 3.75675L57.5459 4.43442L63.2447 9.88308L64.2271 13.5034Z" fill="white"/>
    <path d="M76.0439 8.16844C76.1348 8.80972 75.6209 9.3646 74.1928 9.56471C72.942 9.74209 71.573 9.4783 70.6043 8.96436L70.0403 10.8928C71.0637 11.4749 72.7965 11.7342 74.4475 11.4977C77.4219 11.0792 78.6545 9.38734 78.4089 7.64995C77.8722 3.82952 72.0051 6.00353 71.7368 4.08877C71.6458 3.43384 72.1188 2.81984 73.5469 2.61972C74.4702 2.48782 75.5026 2.61972 76.5441 3.02905L77.0308 1.0961C75.9802 0.623091 74.5976 0.500291 73.2877 0.682217C70.3314 1.10064 69.108 2.77436 69.3581 4.53903C69.9039 8.40494 75.7664 6.21274 76.0393 8.15934L76.0439 8.16844Z" fill="white"/>
    <path d="M86.8874 6.76762L91.7448 6.94954L91.8176 5.00294L86.9602 4.81647L87.0648 2.04211L92.568 2.25132L92.6408 0.300177L84.7088 0L84.3086 10.4971L86.7418 10.588L86.8874 6.76762Z" fill="white"/>
    <path d="M95.0283 0.651197L93.6497 11.0665L96.0619 11.3858L97.4405 0.970467L95.0283 0.651197Z" fill="white"/>
    <path d="M100.423 12.1663L102.793 12.7075L104.69 4.39809L107.969 5.14398L108.41 3.21102L99.4819 1.17346L99.0408 3.10642L102.32 3.85686L100.423 12.1663Z" fill="white"/>
    <path d="M131.966 24.3416L135.723 27.4525L135.004 29.7812L136.969 31.4094L140.048 20.321L138.197 18.7883L127.891 23.8959L129.81 25.4832L131.962 24.3416H131.966ZM137.592 21.3808L136.31 25.5423L133.745 23.4183L137.592 21.3808Z" fill="white"/>
    <path d="M142.646 37.7177L144.097 36.3714L140.522 32.5055L146.78 26.7158L145.129 24.9283L137.416 32.0644L142.646 37.7177Z" fill="white"/>
    <path d="M145.821 42.0384L153.071 40.1055L148.413 45.9544L149.855 48.1329L160.511 45.2085L159.229 43.2664L151.67 45.3313L156.554 39.2231L155.313 37.3448L147.786 39.3505L152.638 33.3015L151.247 31.1957L144.388 39.8735L145.821 42.0384Z" fill="white"/>
    <path d="M155.795 61.236L163.613 52.7901L162.672 50.5798L151.17 50.3978L152.148 52.6901L154.585 52.6628L156.5 57.1473L154.795 58.8892L155.795 61.236ZM160.944 52.6082L157.896 55.7191L156.587 52.6537L160.939 52.6082H160.944Z" fill="white"/>
    <path d="M156.405 63.9103L157.055 66.2526L160.639 65.2611L168.271 67.3805L167.63 65.0791L162.386 63.6237L166.133 59.6714L165.442 57.1836L160.021 62.9097L156.405 63.9103Z" fill="white"/>
    <path d="M165.383 69.0224C161.522 69.5818 163.737 75.4353 161.79 75.7173C161.153 75.8082 160.594 75.2988 160.385 73.8753C160.203 72.6291 160.457 71.2555 160.971 70.2868L159.038 69.7319C158.461 70.7553 158.211 72.4926 158.452 74.1391C158.884 77.109 160.576 78.3324 162.313 78.0823C166.129 77.5274 163.928 71.674 165.847 71.3965C166.502 71.301 167.116 71.774 167.321 73.1976C167.452 74.1163 167.334 75.1533 166.92 76.1994L168.853 76.6769C169.322 75.6218 169.44 74.2391 169.249 72.9338C168.821 69.9775 167.143 68.7677 165.374 69.0224H165.383Z" fill="white"/>
    <path d="M159.502 83.9857L159.42 86.419L163.245 86.5463L163.082 91.4037L165.033 91.4674L165.192 86.61L167.966 86.701L167.784 92.2042L169.736 92.2724L169.999 84.3359L159.502 83.9857Z" fill="white"/>
    <path d="M158.981 93.3218L158.673 95.7355L169.094 97.0667L169.403 94.6531L158.981 93.3218Z" fill="white"/>
    <path d="M166.224 101.96L157.901 100.104L157.374 102.474L165.692 104.334L164.96 107.613L166.893 108.045L168.89 99.1083L166.957 98.6763L166.224 101.96Z" fill="white"/>
    <path d="M144.72 129.549L145.871 131.696L142.778 135.466L140.449 134.757L138.83 136.73L149.932 139.764L151.456 137.908L146.303 127.625L144.72 129.554V129.549ZM148.854 137.308L144.688 136.044L146.803 133.469L148.854 137.308Z" fill="white"/>
    <path d="M132.544 142.434L133.895 143.88L137.747 140.287L143.564 146.518L145.343 144.858L138.17 137.176L132.544 142.434Z" fill="white"/>
    <path d="M128.236 145.627L130.206 152.867L124.334 148.237L122.16 149.688L125.139 160.331L127.072 159.039L124.971 151.489L131.102 156.347L132.976 155.096L130.934 147.582L137.005 152.403L139.102 151.002L130.397 144.185L128.236 145.627Z" fill="white"/>
    <path d="M117.639 154.445L113.163 156.378L111.417 154.682L109.074 155.696L117.552 163.473L119.758 162.523L119.89 151.021L117.602 152.008L117.643 154.441L117.639 154.445ZM117.725 160.804L114.6 157.775L117.657 156.451L117.725 160.804Z" fill="white"/>
    <path d="M106.405 156.31L104.062 156.97L105.072 160.553L102.984 168.194L105.281 167.544L106.714 162.291L110.684 166.025L113.172 165.32L107.423 159.926L106.405 156.31Z" fill="white"/>
    <path d="M94.6289 161.754C94.5334 161.118 95.0427 160.554 96.4663 160.34C97.7125 160.153 99.086 160.404 100.059 160.908L100.605 158.975C99.5772 158.402 97.8399 158.161 96.1934 158.407C93.2235 158.853 92.0091 160.554 92.2684 162.291C92.8415 166.107 98.6858 163.878 98.9723 165.793C99.0724 166.448 98.5994 167.062 97.1758 167.276C96.2571 167.412 95.2201 167.294 94.1741 166.894L93.7056 168.831C94.7608 169.295 96.1434 169.404 97.4533 169.209C100.41 168.768 101.61 167.08 101.346 165.315C100.769 161.454 94.9245 163.701 94.6334 161.754H94.6289Z" fill="white"/>
    <path d="M83.7988 163.251L78.9369 163.11L78.8777 165.061L83.7397 165.202L83.6578 167.976L78.1546 167.817L78.0955 169.768L86.0319 170L86.3367 159.498L83.908 159.426L83.7988 163.251Z" fill="white"/>
    <path d="M74.5873 158.702L73.2996 169.129L75.71 169.427L76.9977 159L74.5873 158.702Z" fill="white"/>
    <path d="M70.222 157.97L67.8434 157.452L66.0241 165.779L62.7404 165.061L62.3174 166.998L71.259 168.954L71.682 167.016L68.3982 166.298L70.222 157.97Z" fill="white"/>
    <path d="M38.5652 146.077L34.7811 143.002L35.477 140.669L33.4986 139.059L30.5195 150.175L32.3843 151.689L42.6448 146.491L40.7119 144.917L38.5697 146.077H38.5652ZM32.9664 149.088L34.2126 144.917L36.796 147.018L32.9664 149.088Z" fill="white"/>
    <path d="M27.7766 132.805L26.3349 134.165L29.9461 137.999L23.7424 143.844L25.4116 145.613L33.057 138.409L27.7766 132.805Z" fill="white"/>
    <path d="M24.5605 128.512L17.329 130.513L21.9362 124.619L20.4763 122.454L9.84277 125.478L11.1435 127.407L18.6843 125.274L13.8542 131.427L15.1141 133.292L22.6185 131.218L17.8247 137.313L19.2347 139.4L26.0114 130.668L24.5605 128.512Z" fill="white"/>
    <path d="M18.1338 117.91L15.7006 117.96L13.7449 113.494L15.4322 111.738L14.4089 109.401L6.66797 117.915L7.63217 120.116L19.1344 120.193L18.1338 117.91ZM9.34227 118.074L12.3577 114.936L13.6948 117.988L9.34227 118.074Z" fill="white"/>
    <path d="M13.7762 106.722L13.1076 104.384L9.52822 105.412L1.88281 103.356L2.53774 105.653L7.79993 107.063L4.08866 111.047L4.79816 113.53L10.1695 107.759L13.7762 106.722Z" fill="white"/>
    <path d="M4.75273 101.705C8.60954 101.109 6.34003 95.2788 8.28663 94.9786C8.92336 94.8785 9.48733 95.3834 9.70564 96.8069C9.89667 98.0531 9.65561 99.4267 9.15077 100.4L11.0837 100.937C11.6522 99.9088 11.8887 98.1714 11.6341 96.525C11.1747 93.5596 9.46914 92.3498 7.7363 92.6181C3.92497 93.2048 6.17629 99.0401 4.26608 99.3357C3.6157 99.4358 2.99715 98.9719 2.77429 97.5483C2.6333 96.6296 2.747 95.5926 3.14724 94.5465L1.20974 94.0872C0.750375 95.1469 0.645768 96.5295 0.845886 97.8348C1.3007 100.787 2.98805 101.983 4.75273 101.71V101.705Z" fill="white"/>
    <path d="M10.5608 84.2451L6.73578 84.1495L6.85403 79.2876L4.90288 79.2421L4.78463 84.1041L2.01027 84.0358L2.14672 78.5281L0.19557 78.478L0 86.4145L10.5016 86.6738L10.5608 84.2451Z" fill="white"/>
    <path d="M0.796119 73.6841L0.509277 76.1003L10.9422 77.3389L11.229 74.9226L0.796119 73.6841Z" fill="white"/>
    <path d="M3.62034 68.7723L11.9571 70.5551L12.4665 68.1765L4.12973 66.3936L4.83014 63.1053L2.89264 62.6914L0.982422 71.6467L2.91993 72.0606L3.62034 68.7723Z" fill="white"/>
    <path d="M90.5899 73.889V73.898C71.5731 56.8608 52.0288 54.1546 43.869 40.2646C42.982 38.7546 36.4506 68.7769 54.2484 90.7079C69.2944 109.246 94.1467 119.952 101.72 119.952C102.461 119.952 106.914 88.5203 90.5899 73.889Z" fill="white"/>
    <path d="M106.173 41.0059V40.9968C86.1462 47.5779 79.4692 60.7402 79.4692 60.7402C79.4692 60.7402 87.0878 65.916 91.3405 69.509C96.5347 73.898 100.237 79.7423 100.237 80.4791C100.237 80.4791 107.046 75.408 112.85 56.3558C115.074 49.047 121.005 43.1935 126.199 38.8137C121.928 38.5681 114.128 38.3953 106.173 41.0059Z" fill="white"/>
    <path d="M82.4301 117.033C82.4301 117.033 77.2358 114.84 73.5335 112.644C70.4633 110.824 65.7603 107.181 65.3782 106.795V106.804C65.3782 106.804 62.6356 111.943 61.6668 121.426C60.9254 128.735 57.9644 133.128 54.9897 136.776C57.223 136.908 64.5914 133.77 68.3392 131.655C78.7186 125.806 82.4301 117.415 82.4301 117.033Z" fill="white"/>
    <path d="M50.8187 159.426C52.0747 159.426 53.0928 158.407 53.0928 157.152C53.0928 155.896 52.0747 154.877 50.8187 154.877C49.5628 154.877 48.5447 155.896 48.5447 157.152C48.5447 158.407 49.5628 159.426 50.8187 159.426Z" fill="white"/>
    <path d="M157.342 121.18C158.598 121.18 159.616 120.162 159.616 118.906C159.616 117.65 158.598 116.632 157.342 116.632C156.086 116.632 155.068 117.65 155.068 118.906C155.068 120.162 156.086 121.18 157.342 121.18Z" fill="white"/>
    <path d="M119.672 15.4545C120.928 15.4545 121.946 14.4364 121.946 13.1804C121.946 11.9245 120.928 10.9064 119.672 10.9064C118.416 10.9064 117.398 11.9245 117.398 13.1804C117.398 14.4364 118.416 15.4545 119.672 15.4545Z" fill="white"/>
    <path d="M12.8444 53.195C14.1003 53.195 15.1184 52.1768 15.1184 50.9209C15.1184 49.665 14.1003 48.6469 12.8444 48.6469C11.5884 48.6469 10.5703 49.665 10.5703 50.9209C10.5703 52.1768 11.5884 53.195 12.8444 53.195Z" fill="white"/>
  </g>
  <defs>
    <clipPath id="clip0_5631_168">
      <rect width="170" height="170" fill="white"/>
    </clipPath>
  </defs>
</svg> 